<svg width="29" height="29" viewBox="0 0 29 29" fill="none" xmlns="http://www.w3.org/2000/svg">
<rect width="29" height="29" rx="5" fill="#007AB9"/>
<path d="M8.81281 24.2692V11.2132H4.47317V24.2692H8.81316H8.81269H8.81281ZM6.64398 9.43107C8.15699 9.43107 9.09885 8.42853 9.09885 7.17559C9.07055 5.89412 8.15687 4.91965 6.67275 4.91965C5.18862 4.91965 4.21753 5.89423 4.21753 7.17547C4.21753 8.45672 5.15916 9.43095 6.61556 9.43095H6.64398V9.43107ZM11.2149 24.2692H15.5542V16.979C15.5542 16.5893 15.5825 16.1985 15.6971 15.9203C16.0106 15.1403 16.7247 14.333 17.9238 14.333C19.4937 14.333 20.122 15.5302 20.122 17.2854V24.2692H24.4612V16.7833C24.4612 12.7733 22.3206 10.9072 19.4656 10.9072C17.1249 10.9072 16.0968 12.2154 15.5257 13.1065H15.5546V11.2137H11.2151C11.2718 12.4385 11.2148 24.2696 11.2148 24.2696V24.2692H11.2149Z" fill="white"/>
</svg>
