<?xml version="1.0" encoding="utf-8"?>
<!-- Generator: Adobe Illustrator 28.0.0, SVG Export Plug-In . SVG Version: 6.00 Build 0)  -->
<svg version="1.1" id="Layer_1" xmlns="http://www.w3.org/2000/svg" xmlns:xlink="http://www.w3.org/1999/xlink" x="0px" y="0px"
	 viewBox="0 0 46 46" style="enable-background:new 0 0 46 46;" xml:space="preserve">
<style type="text/css">
	.st0{fill:#B2D827;}
	.st1{fill:#545F79;}
	.st2{clip-path:url(#SVGID_00000072264353945330834550000014611252144013853356_);}
	.st3{fill:#6CC7B4;}
	.st4{fill:#788E22;}
	.st5{clip-path:url(#SVGID_00000100342894636989347550000015922295065214504615_);}
	.st6{opacity:0.39;}
	.st7{clip-path:url(#SVGID_00000181058628030210053450000002277646064478043303_);}
	.st8{opacity:0.2;}
	.st9{fill:#FFFFFF;}
</style>
<path class="st0" d="M39.6,22c-0.5,0-1-0.4-1-1v-5c0-0.5,0.4-1,1-1h5c0.5,0,1-0.4,1-1V9c0-0.5-0.4-1-1-1H25.4c-0.5,0-1,0.4-1,1v19
	c0,0.5,0.4,1,1,1h19.2c0.5,0,1-0.4,1-1v-5c0-0.5-0.4-1-1-1H39.6z"/>
<path class="st1" d="M7.4,23c0-0.5,0.4-1,1-1h12.1c0.5,0,1-0.4,1-1V9c0-0.5-0.4-1-1-1H1.4c-0.5,0-1,0.4-1,1v19c0,0.5,0.4,1,1,1h5
	c0.5,0,1-0.4,1-1V23z"/>
<g>
	<g>
		<defs>
			<path id="SVGID_1_" d="M7.4,23c0-0.5,0.4-1,1-1h12.1c0.5,0,1-0.4,1-1V9c0-0.5-0.4-1-1-1H1.4c-0.5,0-1,0.4-1,1v19c0,0.5,0.4,1,1,1
				h5c0.5,0,1-0.4,1-1V23z"/>
		</defs>
		<clipPath id="SVGID_00000173143432901647626520000016448029871291303611_">
			<use xlink:href="#SVGID_1_"  style="overflow:visible;"/>
		</clipPath>
		<g style="clip-path:url(#SVGID_00000173143432901647626520000016448029871291303611_);">
			<path class="st3" d="M21.6,21.1c-0.1,0.5-0.6,1.1-1.1,1.3l-5.2,2.1c-0.5,0.2-0.9-0.1-0.9-0.6V16c0-0.5,0.4-1,1-1h6.1
				c0.5,0,0.9,0.4,0.8,1L21.6,21.1z"/>
		</g>
	</g>
</g>
<path class="st4" d="M44.6,31h-5c-0.5,0-1,0.4-1,1v5c0,0.5,0.4,1,1,1h5c0.5,0,1-0.4,1-1v-5C45.6,31.4,45.1,31,44.6,31z"/>
<g>
	<g>
		<defs>
			<path id="SVGID_00000007404332876674858980000008296653020603104918_" d="M39.6,22c-0.5,0-1-0.4-1-1v-5c0-0.5,0.4-1,1-1h5
				c0.5,0,1-0.4,1-1V9c0-0.5-0.4-1-1-1H25.4c-0.5,0-1,0.4-1,1v19c0,0.5,0.4,1,1,1h19.2c0.5,0,1-0.4,1-1v-5c0-0.5-0.4-1-1-1H39.6z"/>
		</defs>
		<clipPath id="SVGID_00000011016488476622330640000015349076038123813781_">
			<use xlink:href="#SVGID_00000007404332876674858980000008296653020603104918_"  style="overflow:visible;"/>
		</clipPath>
		<g style="clip-path:url(#SVGID_00000011016488476622330640000015349076038123813781_);">
			<g class="st6">
				<path class="st4" d="M45.6,29h-7v-9l7,2V29z"/>
			</g>
		</g>
	</g>
</g>
<g>
	<g>
		<defs>
			<path id="SVGID_00000018235447775463851490000015581174740108563346_" d="M39.6,22c-0.5,0-1-0.4-1-1v-5c0-0.5,0.4-1,1-1h5
				c0.5,0,1-0.4,1-1V9c0-0.5-0.4-1-1-1H25.4c-0.5,0-1,0.4-1,1v19c0,0.5,0.4,1,1,1h19.2c0.5,0,1-0.4,1-1v-5c0-0.5-0.4-1-1-1H39.6z"/>
		</defs>
		<clipPath id="SVGID_00000120548405780569491970000013374028313125203120_">
			<use xlink:href="#SVGID_00000018235447775463851490000015581174740108563346_"  style="overflow:visible;"/>
		</clipPath>
		<g style="clip-path:url(#SVGID_00000120548405780569491970000013374028313125203120_);">
			<g class="st8">
				<path class="st9" d="M45.6,15l-7,1.4V8h7V15z"/>
			</g>
		</g>
	</g>
</g>
</svg>
