<?xml version="1.0" encoding="utf-8"?>
<!-- Generator: Adobe Illustrator 28.0.0, SVG Export Plug-In . SVG Version: 6.00 Build 0)  -->
<svg version="1.1" id="Layer_1" xmlns="http://www.w3.org/2000/svg" xmlns:xlink="http://www.w3.org/1999/xlink" x="0px" y="0px"
	 viewBox="0 0 46 46" style="enable-background:new 0 0 46 46;" xml:space="preserve">
<style type="text/css">
	.st0{fill:#312E39;}
	.st1{fill:#1F1F28;}
	.st2{clip-path:url(#SVGID_00000171689320145428849230000004430653703725858996_);}
	.st3{fill:#545469;}
	.st4{fill:#040506;}
	.st5{clip-path:url(#SVGID_00000127746205319155530890000001659716437329205947_);}
	.st6{opacity:0.39;}
	.st7{clip-path:url(#SVGID_00000114775432897162096720000012209700402435187336_);}
	.st8{opacity:0.2;}
	.st9{fill:#FFFFFF;}
</style>
<path class="st0" d="M39.6,22c-0.5,0-1-0.4-1-1v-5c0-0.5,0.4-1,1-1h5c0.5,0,1-0.4,1-1V9c0-0.5-0.4-1-1-1H25.4c-0.5,0-1,0.4-1,1v19
	c0,0.5,0.4,1,1,1h19.2c0.5,0,1-0.4,1-1v-5c0-0.5-0.4-1-1-1H39.6z"/>
<path class="st1" d="M7.4,23c0-0.5,0.4-1,1-1h12.1c0.5,0,1-0.4,1-1V9c0-0.5-0.4-1-1-1H1.4c-0.5,0-1,0.4-1,1v19c0,0.5,0.4,1,1,1h5
	c0.5,0,1-0.4,1-1V23z"/>
<g>
	<g>
		<g>
			<g>
				<g>
					<defs>
						<path id="SVGID_1_" d="M7.4,23c0-0.5,0.4-1,1-1h12.1c0.5,0,1-0.4,1-1V9c0-0.5-0.4-1-1-1H1.4c-0.5,0-1,0.4-1,1v19
							c0,0.5,0.4,1,1,1h5c0.5,0,1-0.4,1-1V23z"/>
					</defs>
					<clipPath id="SVGID_00000180349266553168604430000008748535636630224271_">
						<use xlink:href="#SVGID_1_"  style="overflow:visible;"/>
					</clipPath>
					<g style="clip-path:url(#SVGID_00000180349266553168604430000008748535636630224271_);">
						<path class="st3" d="M21.6,21.1c-0.1,0.5-0.6,1.1-1.1,1.3l-5.2,2.1c-0.5,0.2-0.9-0.1-0.9-0.6V16c0-0.5,0.4-1,1-1h6.1
							c0.5,0,0.9,0.4,0.8,1L21.6,21.1z"/>
					</g>
				</g>
			</g>
		</g>
	</g>
</g>
<path class="st4" d="M44.6,31h-5c-0.5,0-1,0.4-1,1v5c0,0.5,0.4,1,1,1h5c0.5,0,1-0.4,1-1v-5C45.6,31.4,45.1,31,44.6,31z"/>
<g>
	<g>
		<g>
			<g>
				<g>
					<defs>
						<path id="SVGID_00000168836246268919154660000001908889233808584875_" d="M39.6,22c-0.5,0-1-0.4-1-1v-5c0-0.5,0.4-1,1-1h5
							c0.5,0,1-0.4,1-1V9c0-0.5-0.4-1-1-1H25.4c-0.5,0-1,0.4-1,1v19c0,0.5,0.4,1,1,1h19.2c0.5,0,1-0.4,1-1v-5c0-0.5-0.4-1-1-1H39.6z
							"/>
					</defs>
					<clipPath id="SVGID_00000135676633067270126240000003585415866338817469_">
						<use xlink:href="#SVGID_00000168836246268919154660000001908889233808584875_"  style="overflow:visible;"/>
					</clipPath>
					<g style="clip-path:url(#SVGID_00000135676633067270126240000003585415866338817469_);">
						<g class="st6">
							<path class="st4" d="M45.6,29h-7v-9l7,2V29z"/>
						</g>
					</g>
				</g>
			</g>
		</g>
	</g>
</g>
<g>
	<g>
		<g>
			<g>
				<g>
					<defs>
						<path id="SVGID_00000061457953066870017900000018079627410933754508_" d="M39.6,22c-0.5,0-1-0.4-1-1v-5c0-0.5,0.4-1,1-1h5
							c0.5,0,1-0.4,1-1V9c0-0.5-0.4-1-1-1H25.4c-0.5,0-1,0.4-1,1v19c0,0.5,0.4,1,1,1h19.2c0.5,0,1-0.4,1-1v-5c0-0.5-0.4-1-1-1H39.6z
							"/>
					</defs>
					<clipPath id="SVGID_00000069360664733273840630000017338808539551754885_">
						<use xlink:href="#SVGID_00000061457953066870017900000018079627410933754508_"  style="overflow:visible;"/>
					</clipPath>
					<g style="clip-path:url(#SVGID_00000069360664733273840630000017338808539551754885_);">
						<g class="st8">
							<path class="st9" d="M45.6,15l-7,1.4V8h7V15z"/>
						</g>
					</g>
				</g>
			</g>
		</g>
	</g>
</g>
<g>
	<g class="st8">
		<path class="st9" d="M45.6,14.8l-7,1.4V7.8h7V14.8z"/>
	</g>
</g>
</svg>
