<?xml version="1.0" encoding="utf-8"?>
<!-- Generator: Adobe Illustrator 28.0.0, SVG Export Plug-In . SVG Version: 6.00 Build 0)  -->
<svg version="1.1" id="Layer_1" xmlns="http://www.w3.org/2000/svg" xmlns:xlink="http://www.w3.org/1999/xlink" x="0px" y="0px"
	 viewBox="0 0 46 46" style="enable-background:new 0 0 46 46;" xml:space="preserve">
<style type="text/css">
	.st0{fill:#D87F27;}
	.st1{fill:#70726C;}
	.st2{clip-path:url(#SVGID_00000145030717202667461010000009913565117482758316_);}
	.st3{fill:#596A63;}
	.st4{clip-path:url(#SVGID_00000113350235199946537680000010424399807228295303_);}
	.st5{opacity:0.39;}
	.st6{fill:#D09A3E;}
	.st7{opacity:0.2;}
	.st8{fill:#FFFCDD;}
</style>
<path class="st0" d="M39.6,22c-0.5,0-1-0.4-1-1v-5c0-0.5,0.4-1,1-1h5c0.5,0,1-0.4,1-1V9c0-0.5-0.4-1-1-1H25.4c-0.5,0-1,0.4-1,1v19
	c0,0.5,0.4,1,1,1h19.2c0.5,0,1-0.4,1-1v-5c0-0.5-0.4-1-1-1H39.6z"/>
<path class="st1" d="M7.4,23c0-0.5,0.4-1,1-1h12.1c0.5,0,1-0.4,1-1V9c0-0.5-0.4-1-1-1H1.4c-0.5,0-1,0.4-1,1v19c0,0.5,0.4,1,1,1h5
	c0.5,0,1-0.4,1-1V23z"/>
<g>
	<defs>
		<path id="SVGID_1_" d="M7.4,23c0-0.5,0.4-1,1-1h12.1c0.5,0,1-0.4,1-1V9c0-0.5-0.4-1-1-1H1.4c-0.5,0-1,0.4-1,1v19c0,0.5,0.4,1,1,1
			h5c0.5,0,1-0.4,1-1V23z"/>
	</defs>
	<clipPath id="SVGID_00000016059242571378883670000002729272477845451421_">
		<use xlink:href="#SVGID_1_"  style="overflow:visible;"/>
	</clipPath>
	<g style="clip-path:url(#SVGID_00000016059242571378883670000002729272477845451421_);">
		<path class="st3" d="M21.6,21.1c-0.1,0.5-0.6,1.1-1.1,1.3l-5.2,2.1c-0.5,0.2-0.9-0.1-0.9-0.6V16c0-0.5,0.4-1,1-1h6.1
			c0.5,0,0.9,0.4,0.8,1L21.6,21.1z"/>
	</g>
</g>
<path class="st0" d="M44.6,31h-5c-0.5,0-1,0.4-1,1v5c0,0.5,0.4,1,1,1h5c0.5,0,1-0.4,1-1v-5C45.6,31.4,45.1,31,44.6,31z"/>
<g>
	<defs>
		<path id="SVGID_00000167374563639891429440000010233371222678191750_" d="M39.6,22c-0.5,0-1-0.4-1-1v-5c0-0.5,0.4-1,1-1h5
			c0.5,0,1-0.4,1-1V9c0-0.5-0.4-1-1-1H25.4c-0.5,0-1,0.4-1,1v19c0,0.5,0.4,1,1,1h19.2c0.5,0,1-0.4,1-1v-5c0-0.5-0.4-1-1-1H39.6z"/>
	</defs>
	<clipPath id="SVGID_00000085953670770310986300000011118418796690487206_">
		<use xlink:href="#SVGID_00000167374563639891429440000010233371222678191750_"  style="overflow:visible;"/>
	</clipPath>
	<g style="clip-path:url(#SVGID_00000085953670770310986300000011118418796690487206_);">
		<g class="st5">
			<path class="st6" d="M45.6,29h-7v-9l7,2V29z"/>
		</g>
	</g>
</g>
<g>
	<g class="st7">
		<path class="st8" d="M45.6,15l-7,1.4V8h7V15z"/>
	</g>
</g>
</svg>
