<?xml version="1.0" encoding="utf-8"?>
<!-- Generator: Adobe Illustrator 28.0.0, SVG Export Plug-In . SVG Version: 6.00 Build 0)  -->
<svg version="1.1" id="Layer_1" xmlns="http://www.w3.org/2000/svg" xmlns:xlink="http://www.w3.org/1999/xlink" x="0px" y="0px"
	 viewBox="0 0 45 46" style="enable-background:new 0 0 45 46;" xml:space="preserve">
<style type="text/css">
	.st0{fill:#303244;}
	.st1{fill:#5DAEFF;}
	.st2{fill:#73FFC6;}
	.st3{clip-path:url(#SVGID_00000016046803851179170920000009415236307524523411_);}
	.st4{fill:#49CCBF;}
	.st5{fill:#4734F7;}
	.st6{clip-path:url(#SVGID_00000013878290742351991020000013089206956118598029_);}
	.st7{opacity:0.39;}
	.st8{opacity:0.2;}
	.st9{fill:#DEF7E5;}
</style>
<g>
	<path class="st0" d="M44,34.4c-2.5,10.3-12.6,11.1-21.5,10.9c-7,0-15.7,0-19.7-6.7c-3.5-6.3-2.4-14.4-2.3-21.5
		c0.2-11,6.2-16.4,17-16.4c10.7-0.3,24.8-1.3,27,12.2c0.9,7,0.9,14.5-0.3,21.4L44,34.4z"/>
</g>
<path class="st1" d="M35.5,23.5c-0.4,0-0.8-0.3-0.8-0.8v-3.9c0-0.4,0.3-0.8,0.8-0.8h3.9c0.4,0,0.8-0.3,0.8-0.8v-4
	c0-0.4-0.3-0.8-0.8-0.8H24.3c-0.4,0-0.8,0.3-0.8,0.8v14.9c0,0.4,0.3,0.8,0.8,0.8h15.1c0.4,0,0.8-0.3,0.8-0.8v-3.8
	c0-0.4-0.3-0.8-0.8-0.8H35.5L35.5,23.5z"/>
<path class="st2" d="M10.3,24.3c0-0.4,0.3-0.8,0.8-0.8h9.4c0.4,0,0.8-0.3,0.8-0.8v-9.4c0-0.4-0.3-0.8-0.8-0.8H5.6
	c-0.4,0-0.8,0.3-0.8,0.8v14.9c0,0.4,0.3,0.8,0.8,0.8h3.9c0.4,0,0.8-0.3,0.8-0.8V24.3z"/>
<g>
	<defs>
		<path id="SVGID_1_" d="M10.3,24.3c0-0.4,0.3-0.8,0.8-0.8h9.4c0.4,0,0.8-0.3,0.8-0.8v-9.4c0-0.4-0.3-0.8-0.8-0.8H5.6
			c-0.4,0-0.8,0.3-0.8,0.8v14.9c0,0.4,0.3,0.8,0.8,0.8h3.9c0.4,0,0.8-0.3,0.8-0.8V24.3z"/>
	</defs>
	<clipPath id="SVGID_00000033341133959560956220000004653464773069959604_">
		<use xlink:href="#SVGID_1_"  style="overflow:visible;"/>
	</clipPath>
	<g style="clip-path:url(#SVGID_00000033341133959560956220000004653464773069959604_);">
		<path class="st4" d="M21.4,22.8c-0.1,0.4-0.4,0.9-0.8,1l-4.1,1.7c-0.4,0.2-0.7-0.1-0.7-0.5v-6.2c0-0.4,0.3-0.8,0.8-0.8h4.8
			c0.4,0,0.7,0.3,0.6,0.8L21.4,22.8z"/>
	</g>
</g>
<path class="st5" d="M39.4,30.5h-3.9c-0.4,0-0.8,0.3-0.8,0.8v3.9c0,0.4,0.3,0.8,0.8,0.8h3.9c0.4,0,0.8-0.3,0.8-0.8v-3.9
	C40.2,30.8,39.8,30.5,39.4,30.5z"/>
<g>
	<defs>
		<path id="SVGID_00000149370010842404190740000000171622852218655371_" d="M35.5,23.5c-0.4,0-0.8-0.3-0.8-0.8v-3.9
			c0-0.4,0.3-0.8,0.8-0.8h3.9c0.4,0,0.8-0.3,0.8-0.8v-4c0-0.4-0.3-0.8-0.8-0.8H24.3c-0.4,0-0.8,0.3-0.8,0.8v14.9
			c0,0.4,0.3,0.8,0.8,0.8h15.1c0.4,0,0.8-0.3,0.8-0.8v-3.8c0-0.4-0.3-0.8-0.8-0.8H35.5L35.5,23.5z"/>
	</defs>
	<clipPath id="SVGID_00000025427596005591154990000000095829611840698814_">
		<use xlink:href="#SVGID_00000149370010842404190740000000171622852218655371_"  style="overflow:visible;"/>
	</clipPath>
	<g style="clip-path:url(#SVGID_00000025427596005591154990000000095829611840698814_);">
		<g class="st7">
			<path class="st5" d="M40.2,29h-5.5v-7l5.9,1.2L40.2,29z"/>
		</g>
	</g>
	<g style="clip-path:url(#SVGID_00000025427596005591154990000000095829611840698814_);">
		<g class="st8">
			<path class="st9" d="M40.2,18l-5.5,1.1v-7.6h5.5V18z"/>
		</g>
	</g>
</g>
</svg>
