<?xml version="1.0" encoding="utf-8"?>
<!-- Generator: Adobe Illustrator 28.0.0, SVG Export Plug-In . SVG Version: 6.00 Build 0)  -->
<svg version="1.1" id="Layer_1" xmlns="http://www.w3.org/2000/svg" xmlns:xlink="http://www.w3.org/1999/xlink" x="0px" y="0px"
	 viewBox="0 0 45 46" style="enable-background:new 0 0 45 46;" xml:space="preserve">
<style type="text/css">
	.st0{fill:#303244;}
	.st1{fill:#5DAEFF;}
	.st2{fill:#73FFC6;}
	.st3{clip-path:url(#SVGID_00000137122846439103437340000000773445362506901938_);}
	.st4{fill:#49CCBF;}
	.st5{fill:#4734F7;}
	.st6{fill:#4FD4DB;}
	.st7{clip-path:url(#SVGID_00000000936148744628755810000010091882981036301242_);}
	.st8{opacity:0.39;}
	.st9{clip-path:url(#SVGID_00000151508257052242489760000016719036039554000051_);}
	.st10{opacity:0.2;}
	.st11{fill:#DEF7E5;}
</style>
<g>
	<path class="st0" d="M44,34.4c-2.5,10.3-12.6,11.1-21.5,10.9c-7,0-15.7,0-19.7-6.7c-3.5-6.3-2.4-14.4-2.3-21.5
		c0.2-11,6.2-16.4,17-16.4c10.7-0.3,24.8-1.3,27,12.2c0.9,7,0.9,14.5-0.3,21.4L44,34.4z"/>
</g>
<g>
	<path class="st1" d="M35.5,19.5c-0.4,0-0.8-0.3-0.8-0.8v-3.9c0-0.4,0.3-0.8,0.8-0.8h3.9c0.4,0,0.8-0.3,0.8-0.8v-4
		c0-0.4-0.3-0.8-0.8-0.8H24.3c-0.4,0-0.8,0.3-0.8,0.8v14.9c0,0.4,0.3,0.8,0.8,0.8h15.1c0.4,0,0.8-0.3,0.8-0.8v-3.8
		c0-0.4-0.3-0.8-0.8-0.8L35.5,19.5L35.5,19.5z"/>
	<path class="st2" d="M10.3,20.3c0-0.4,0.3-0.8,0.8-0.8h9.4c0.4,0,0.8-0.3,0.8-0.8V9.3c0-0.4-0.3-0.8-0.8-0.8H5.6
		c-0.4,0-0.8,0.3-0.8,0.8v14.9c0,0.4,0.3,0.8,0.8,0.8h3.9c0.4,0,0.8-0.3,0.8-0.8V20.3z"/>
	<g>
		<g>
			<g>
				<defs>
					<path id="SVGID_1_" d="M10.3,20.3c0-0.4,0.3-0.8,0.8-0.8h9.4c0.4,0,0.8-0.3,0.8-0.8V9.3c0-0.4-0.3-0.8-0.8-0.8H5.6
						c-0.4,0-0.8,0.3-0.8,0.8v14.9c0,0.4,0.3,0.8,0.8,0.8h3.9c0.4,0,0.8-0.3,0.8-0.8V20.3z"/>
				</defs>
				<clipPath id="SVGID_00000120530911975810504770000004726133534978874558_">
					<use xlink:href="#SVGID_1_"  style="overflow:visible;"/>
				</clipPath>
				<g style="clip-path:url(#SVGID_00000120530911975810504770000004726133534978874558_);">
					<path class="st4" d="M21.4,18.8c-0.1,0.4-0.4,0.9-0.8,1l-4.1,1.7c-0.4,0.2-0.7-0.1-0.7-0.5v-6.2c0-0.4,0.3-0.8,0.8-0.8h4.8
						c0.4,0,0.7,0.3,0.6,0.8L21.4,18.8z"/>
				</g>
			</g>
		</g>
	</g>
	<path class="st5" d="M39.4,32h-3.9c-0.4,0-0.8,0.3-0.8,0.8v3.9c0,0.4,0.3,0.8,0.8,0.8h3.9c0.4,0,0.8-0.3,0.8-0.8v-3.9
		C40.2,32.3,39.8,32,39.4,32z"/>
	<path class="st1" d="M28.2,26.5h-3.9c-0.4,0-0.8,0.3-0.8,0.8v3.9c0,0.4,0.3,0.8,0.8,0.8h3.9c0.4,0,0.8-0.3,0.8-0.8v-3.9
		C29,26.8,28.6,26.5,28.2,26.5z"/>
	<path class="st6" d="M9.5,32H5.6c-0.4,0-0.8,0.3-0.8,0.8v3.9c0,0.4,0.3,0.8,0.8,0.8h3.9c0.4,0,0.8-0.3,0.8-0.8v-3.9
		C10.3,32.3,9.9,32,9.5,32z"/>
	<g>
		<g>
			<g>
				<defs>
					<path id="SVGID_00000060750580647128616270000015357403073125043368_" d="M35.5,19.5c-0.4,0-0.8-0.3-0.8-0.8v-3.9
						c0-0.4,0.3-0.8,0.8-0.8h3.9c0.4,0,0.8-0.3,0.8-0.8v-4c0-0.4-0.3-0.8-0.8-0.8H24.3c-0.4,0-0.8,0.3-0.8,0.8v14.9
						c0,0.4,0.3,0.8,0.8,0.8h15.1c0.4,0,0.8-0.3,0.8-0.8v-3.8c0-0.4-0.3-0.8-0.8-0.8L35.5,19.5L35.5,19.5z"/>
				</defs>
				<clipPath id="SVGID_00000009559429053006528630000004404719813355597968_">
					<use xlink:href="#SVGID_00000060750580647128616270000015357403073125043368_"  style="overflow:visible;"/>
				</clipPath>
				<g style="clip-path:url(#SVGID_00000009559429053006528630000004404719813355597968_);">
					<g class="st8">
						<path class="st5" d="M40.2,25h-5.5v-7l5.9,1.2L40.2,25z"/>
					</g>
				</g>
			</g>
		</g>
		<g>
			<g>
				<defs>
					<path id="SVGID_00000045609134687844863440000010004699300626082701_" d="M35.5,19.5c-0.4,0-0.8-0.3-0.8-0.8v-3.9
						c0-0.4,0.3-0.8,0.8-0.8h3.9c0.4,0,0.8-0.3,0.8-0.8v-4c0-0.4-0.3-0.8-0.8-0.8H24.3c-0.4,0-0.8,0.3-0.8,0.8v14.9
						c0,0.4,0.3,0.8,0.8,0.8h15.1c0.4,0,0.8-0.3,0.8-0.8v-3.8c0-0.4-0.3-0.8-0.8-0.8L35.5,19.5L35.5,19.5z"/>
				</defs>
				<clipPath id="SVGID_00000140006470510650816520000013923485928780380341_">
					<use xlink:href="#SVGID_00000045609134687844863440000010004699300626082701_"  style="overflow:visible;"/>
				</clipPath>
				<g style="clip-path:url(#SVGID_00000140006470510650816520000013923485928780380341_);">
					<g class="st10">
						<path class="st11" d="M40.2,14l-5.5,1.1V7.5h5.5V14z"/>
					</g>
				</g>
			</g>
		</g>
	</g>
</g>
</svg>
