<?xml version="1.0" encoding="utf-8"?>
<!-- Generator: Adobe Illustrator 28.0.0, SVG Export Plug-In . SVG Version: 6.00 Build 0)  -->
<svg version="1.1" id="Layer_1" xmlns="http://www.w3.org/2000/svg" xmlns:xlink="http://www.w3.org/1999/xlink" x="0px" y="0px"
	 viewBox="0 0 46 46" style="enable-background:new 0 0 46 46;" xml:space="preserve">
<style type="text/css">
	.st0{fill:#FF5D67;}
	.st1{fill:#7386FF;}
	.st2{fill:#FFFFFF;filter:url(#Adobe_OpacityMaskFilter);}
	.st3{mask:url(#mask0_1_5958_00000018920428424422966620000016492973652823972518_);}
	.st4{fill:#5D37CC;}
	.st5{fill:#FF6C36;}
	.st6{fill:#FFFFFF;filter:url(#Adobe_OpacityMaskFilter_00000092431216058610041770000001349976722319128982_);}
	.st7{mask:url(#mask1_1_5958_00000111890912668521443520000014288546358732345524_);}
	.st8{opacity:0.39;}
	.st9{fill:#FFA536;}
	.st10{fill:#FFFFFF;filter:url(#Adobe_OpacityMaskFilter_00000119808923137633579120000012812306441670162823_);}
	.st11{mask:url(#mask2_1_5958_00000047764597417834741590000017020304142740890799_);}
	.st12{opacity:0.2;}
	.st13{fill:#FAE5FF;}
</style>
<g>
	<path class="st0" d="M39.6,22c-0.5,0-1-0.4-1-1v-5c0-0.5,0.4-1,1-1h5c0.5,0,1-0.4,1-1V9c0-0.5-0.4-1-1-1H25.4c-0.5,0-1,0.4-1,1v19
		c0,0.5,0.4,1,1,1h19.2c0.5,0,1-0.4,1-1V23c0-0.5-0.4-1-1-1H39.6z"/>
	<path class="st1" d="M7.4,23c0-0.5,0.4-1,1-1h12.1c0.5,0,1-0.4,1-1V9c0-0.5-0.4-1-1-1H1.4c-0.5,0-1,0.4-1,1v19c0,0.5,0.4,1,1,1h5
		c0.5,0,1-0.4,1-1V23z"/>
	<defs>
		<filter id="Adobe_OpacityMaskFilter" filterUnits="userSpaceOnUse" x="14.4" y="15.1" width="8" height="9.5">
			<feColorMatrix  type="matrix" values="1 0 0 0 0  0 1 0 0 0  0 0 1 0 0  0 0 0 1 0"/>
		</filter>
	</defs>
	
		<mask maskUnits="userSpaceOnUse" x="14.4" y="15.1" width="8" height="9.5" id="mask0_1_5958_00000018920428424422966620000016492973652823972518_">
		<path class="st2" d="M7.4,23c0-0.5,0.4-1,1-1h12.1c0.5,0,1-0.4,1-1V9c0-0.5-0.4-1-1-1H1.4c-0.5,0-1,0.4-1,1v19c0,0.5,0.4,1,1,1h5
			c0.5,0,1-0.4,1-1V23z"/>
	</mask>
	<g class="st3">
		<path class="st4" d="M21.6,21.1c-0.1,0.5-0.6,1.1-1.1,1.3l-5.2,2.1c-0.5,0.2-0.9-0.1-0.9-0.6V16c0-0.5,0.4-1,1-1h6.1
			c0.5,0,0.9,0.4,0.8,1L21.6,21.1z"/>
	</g>
	<path class="st5" d="M44.6,31h-5c-0.5,0-1,0.4-1,1v5c0,0.5,0.4,1,1,1h5c0.5,0,1-0.4,1-1v-5C45.6,31.4,45.1,31,44.6,31z"/>
	<defs>
		
			<filter id="Adobe_OpacityMaskFilter_00000060001120260382027860000006499649850925540018_" filterUnits="userSpaceOnUse" x="38.6" y="20" width="7" height="9">
			<feColorMatrix  type="matrix" values="1 0 0 0 0  0 1 0 0 0  0 0 1 0 0  0 0 0 1 0"/>
		</filter>
	</defs>
	
		<mask maskUnits="userSpaceOnUse" x="38.6" y="20" width="7" height="9" id="mask1_1_5958_00000111890912668521443520000014288546358732345524_">
		<path style="fill:#FFFFFF;filter:url(#Adobe_OpacityMaskFilter_00000060001120260382027860000006499649850925540018_);" d="
			M39.6,22c-0.5,0-1-0.4-1-1v-5c0-0.5,0.4-1,1-1h5c0.5,0,1-0.4,1-1V9c0-0.5-0.4-1-1-1H25.4c-0.5,0-1,0.4-1,1v19c0,0.5,0.4,1,1,1
			h19.2c0.5,0,1-0.4,1-1V23c0-0.5-0.4-1-1-1H39.6z"/>
	</mask>
	<g class="st7">
		<g class="st8">
			<path class="st9" d="M45.6,29h-7v-9l7,2V29z"/>
		</g>
	</g>
	<defs>
		
			<filter id="Adobe_OpacityMaskFilter_00000039092470241340059250000009965566205829093044_" filterUnits="userSpaceOnUse" x="38.6" y="8" width="7" height="8.4">
			<feColorMatrix  type="matrix" values="1 0 0 0 0  0 1 0 0 0  0 0 1 0 0  0 0 0 1 0"/>
		</filter>
	</defs>
	
		<mask maskUnits="userSpaceOnUse" x="38.6" y="8" width="7" height="8.4" id="mask2_1_5958_00000047764597417834741590000017020304142740890799_">
		<path style="fill:#FFFFFF;filter:url(#Adobe_OpacityMaskFilter_00000039092470241340059250000009965566205829093044_);" d="
			M39.6,22c-0.5,0-1-0.4-1-1v-5c0-0.5,0.4-1,1-1h5c0.5,0,1-0.4,1-1V9c0-0.5-0.4-1-1-1H25.4c-0.5,0-1,0.4-1,1v19c0,0.5,0.4,1,1,1
			h19.2c0.5,0,1-0.4,1-1V23c0-0.5-0.4-1-1-1H39.6z"/>
	</mask>
	<g class="st11">
		<g class="st12">
			<path class="st13" d="M45.6,15l-7,1.4V8h7V15z"/>
		</g>
	</g>
</g>
</svg>
