<?xml version="1.0" encoding="utf-8"?>
<!-- Generator: Adobe Illustrator 28.0.0, SVG Export Plug-In . SVG Version: 6.00 Build 0)  -->
<svg version="1.1" id="Layer_1" xmlns="http://www.w3.org/2000/svg" xmlns:xlink="http://www.w3.org/1999/xlink" x="0px" y="0px"
	 viewBox="0 0 45 46" style="enable-background:new 0 0 45 46;" xml:space="preserve">
<style type="text/css">
	.st0{fill:#303244;}
	.st1{fill:#5DAEFF;}
	.st2{fill:#73FFC6;}
	.st3{fill:#FFFFFF;filter:url(#Adobe_OpacityMaskFilter);}
	.st4{mask:url(#mask0_1_5958_00000165921040200079722630000001879563917750373556_);}
	.st5{fill:#49CCBF;}
	.st6{fill:#4734F7;}
	.st7{fill:#FFFFFF;filter:url(#Adobe_OpacityMaskFilter_00000160157913590608277560000004732735152903804040_);}
	.st8{mask:url(#mask1_1_5958_00000005238008213792705670000005901789245006791075_);}
	.st9{opacity:0.39;}
	.st10{fill:#FFFFFF;filter:url(#Adobe_OpacityMaskFilter_00000139993075272856995730000011726725895458017974_);}
	.st11{mask:url(#mask2_1_5958_00000027605284497584732070000008847351507447821206_);}
	.st12{opacity:0.2;}
	.st13{fill:#DEF7E5;}
</style>
<g>
	<path class="st0" d="M44.3,34.4c-0.6,4.9-5.4,9.7-10.3,10.3c-7.7,0.8-15.4,0.8-23.1,0c-4.9-0.6-9.7-5.4-10.3-10.3
		C0,26.7,0,19,0.8,11.3C1.3,6.5,6.1,1.6,11,1.1c7.7-0.8,15.4-0.8,23.1,0c4.9,0.6,9.7,5.4,10.3,10.3C45.1,19,45.1,26.7,44.3,34.4z"/>
</g>
<path class="st1" d="M35.5,23.5c-0.4,0-0.8-0.3-0.8-0.8v-3.9c0-0.4,0.3-0.8,0.8-0.8h3.9c0.4,0,0.8-0.3,0.8-0.8v-4
	c0-0.4-0.3-0.8-0.8-0.8H24.3c-0.4,0-0.8,0.3-0.8,0.8v14.9c0,0.4,0.3,0.8,0.8,0.8h15.1c0.4,0,0.8-0.3,0.8-0.8v-4
	c0-0.4-0.3-0.8-0.8-0.8H35.5z"/>
<path class="st2" d="M10.3,24.3c0-0.4,0.3-0.8,0.8-0.8h9.4c0.4,0,0.8-0.3,0.8-0.8v-9.4c0-0.4-0.3-0.8-0.8-0.8H5.6
	c-0.4,0-0.8,0.3-0.8,0.8v14.9c0,0.4,0.3,0.8,0.8,0.8h3.9c0.4,0,0.8-0.3,0.8-0.8V24.3z"/>
<defs>
	<filter id="Adobe_OpacityMaskFilter" filterUnits="userSpaceOnUse" x="15.8" y="18.1" width="6.2" height="7.5">
		<feColorMatrix  type="matrix" values="1 0 0 0 0  0 1 0 0 0  0 0 1 0 0  0 0 0 1 0"/>
	</filter>
</defs>
<mask maskUnits="userSpaceOnUse" x="15.8" y="18.1" width="6.2" height="7.5" id="mask0_1_5958_00000165921040200079722630000001879563917750373556_">
	<path class="st3" d="M10.3,24.3c0-0.4,0.3-0.8,0.8-0.8h9.4c0.4,0,0.8-0.3,0.8-0.8v-9.4c0-0.4-0.3-0.8-0.8-0.8H5.6
		c-0.4,0-0.8,0.3-0.8,0.8v14.9c0,0.4,0.3,0.8,0.8,0.8h3.9c0.4,0,0.8-0.3,0.8-0.8V24.3z"/>
</mask>
<g class="st4">
	<path class="st5" d="M21.4,22.8c-0.1,0.4-0.4,0.9-0.8,1l-4.1,1.7c-0.4,0.2-0.7-0.1-0.7-0.5v-6.2c0-0.4,0.3-0.8,0.8-0.8h4.8
		c0.4,0,0.7,0.3,0.6,0.8L21.4,22.8z"/>
</g>
<path class="st6" d="M39.4,30.5h-3.9c-0.4,0-0.8,0.3-0.8,0.8v3.9c0,0.4,0.3,0.8,0.8,0.8h3.9c0.4,0,0.8-0.3,0.8-0.8v-3.9
	C40.2,30.8,39.8,30.5,39.4,30.5z"/>
<defs>
	
		<filter id="Adobe_OpacityMaskFilter_00000062155779778895740750000013220712676120079259_" filterUnits="userSpaceOnUse" x="34.7" y="22" width="5.5" height="7">
		<feColorMatrix  type="matrix" values="1 0 0 0 0  0 1 0 0 0  0 0 1 0 0  0 0 0 1 0"/>
	</filter>
</defs>
<mask maskUnits="userSpaceOnUse" x="34.7" y="22" width="5.5" height="7" id="mask1_1_5958_00000005238008213792705670000005901789245006791075_">
	<path style="fill:#FFFFFF;filter:url(#Adobe_OpacityMaskFilter_00000062155779778895740750000013220712676120079259_);" d="
		M35.5,23.5c-0.4,0-0.8-0.3-0.8-0.8v-3.9c0-0.4,0.3-0.8,0.8-0.8h3.9c0.4,0,0.8-0.3,0.8-0.8v-4c0-0.4-0.3-0.8-0.8-0.8H24.3
		c-0.4,0-0.8,0.3-0.8,0.8v14.9c0,0.4,0.3,0.8,0.8,0.8h15.1c0.4,0,0.8-0.3,0.8-0.8v-4c0-0.4-0.3-0.8-0.8-0.8H35.5z"/>
</mask>
<g class="st8">
	<g class="st9">
		<path class="st6" d="M40.2,29h-5.5v-7l5.5,1.6V29z"/>
	</g>
</g>
<defs>
	
		<filter id="Adobe_OpacityMaskFilter_00000102523018864142336790000016743650752316678047_" filterUnits="userSpaceOnUse" x="34.7" y="12.6" width="5.5" height="6.5">
		<feColorMatrix  type="matrix" values="1 0 0 0 0  0 1 0 0 0  0 0 1 0 0  0 0 0 1 0"/>
	</filter>
</defs>
<mask maskUnits="userSpaceOnUse" x="34.7" y="12.6" width="5.5" height="6.5" id="mask2_1_5958_00000027605284497584732070000008847351507447821206_">
	<path style="fill:#FFFFFF;filter:url(#Adobe_OpacityMaskFilter_00000102523018864142336790000016743650752316678047_);" d="
		M35.5,23.5c-0.4,0-0.8-0.3-0.8-0.8v-3.9c0-0.4,0.3-0.8,0.8-0.8h3.9c0.4,0,0.8-0.3,0.8-0.8v-4c0-0.4-0.3-0.8-0.8-0.8H24.3
		c-0.4,0-0.8,0.3-0.8,0.8v14.9c0,0.4,0.3,0.8,0.8,0.8h15.1c0.4,0,0.8-0.3,0.8-0.8v-4c0-0.4-0.3-0.8-0.8-0.8H35.5z"/>
</mask>
<g class="st11">
	<g class="st12">
		<path class="st13" d="M40.2,18l-5.5,1.1v-6.5h5.5V18z"/>
	</g>
</g>
</svg>
