<svg width="45" height="46" viewBox="0 0 45 46" fill="none" xmlns="http://www.w3.org/2000/svg">
<rect y="0.5" width="45" height="45" rx="7" fill="#303244"/>
<path d="M35.4605 23.5226C35.0404 23.5226 34.6967 23.1789 34.6967 22.7588V18.8126C34.6967 18.3925 35.0404 18.0488 35.4605 18.0488H39.4092C39.8293 18.0488 40.173 17.7051 40.173 17.285V13.3312C40.173 12.9111 39.8293 12.5674 39.4092 12.5674H24.3448C23.9248 12.5674 23.5811 12.9111 23.5811 13.3312V28.2428C23.5811 28.6629 23.9248 29.0066 24.3448 29.0066H39.4092C39.8293 29.0066 40.173 28.6629 40.173 28.2428V24.2864C40.173 23.8663 39.8293 23.5226 39.4092 23.5226H35.4605Z" fill="#5DAEFF"/>
<path d="M10.2951 24.2772C10.2951 23.8571 10.6388 23.5134 11.0589 23.5134H20.4993C20.9193 23.5134 21.263 23.1697 21.263 22.7496V13.3321C21.263 12.9121 20.9193 12.5684 20.4993 12.5684H5.58507C5.16499 12.5684 4.82129 12.9121 4.82129 13.3321V28.2438C4.82129 28.6639 5.16499 29.0076 5.58507 29.0076H9.5313C9.95138 29.0076 10.2951 28.6639 10.2951 28.2438V24.2772Z" fill="#73FFC6"/>
<mask id="mask0_1_5958" style="mask-type:luminance" maskUnits="userSpaceOnUse" x="4" y="12" width="18" height="18">
<path d="M10.2961 24.2791C10.2961 23.8591 10.6398 23.5154 11.0598 23.5154H20.5002C20.9203 23.5154 21.264 23.1717 21.264 22.7516V13.3341C21.264 12.914 20.9203 12.5703 20.5002 12.5703H5.58605C5.16597 12.5703 4.82227 12.914 4.82227 13.3341V28.2457C4.82227 28.6658 5.16597 29.0095 5.58605 29.0095H9.53227C9.95236 29.0095 10.2961 28.6658 10.2961 28.2457V24.2791Z" fill="white"/>
</mask>
<g mask="url(#mask0_1_5958)">
<path d="M21.3673 22.7723C21.3011 23.1873 20.9294 23.6558 20.5424 23.8162L16.4841 25.4736C16.0946 25.6314 15.7764 25.4176 15.7764 24.9975V18.8185C15.7764 18.3984 16.1201 18.0547 16.5402 18.0547H21.3469C21.767 18.0547 22.0572 18.3933 21.991 18.8083L21.3673 22.7723Z" fill="#49CCBF"/>
</g>
<path d="M39.4136 30.5059H35.4674C35.0456 30.5059 34.7036 30.8478 34.7036 31.2696V35.2159C34.7036 35.6377 35.0456 35.9797 35.4674 35.9797H39.4136C39.8354 35.9797 40.1774 35.6377 40.1774 35.2159V31.2696C40.1774 30.8478 39.8354 30.5059 39.4136 30.5059Z" fill="#4734F7"/>
<mask id="mask1_1_5958" style="mask-type:luminance" maskUnits="userSpaceOnUse" x="23" y="12" width="18" height="18">
<path d="M35.4639 23.5246C35.0438 23.5246 34.7001 23.1809 34.7001 22.7608V18.8146C34.7001 18.3945 35.0438 18.0508 35.4639 18.0508H39.4126C39.8327 18.0508 40.1764 17.7071 40.1764 17.287V13.3331C40.1764 12.913 39.8327 12.5693 39.4126 12.5693H24.3483C23.9282 12.5693 23.5845 12.913 23.5845 13.3331V28.2448C23.5845 28.6648 23.9282 29.0085 24.3483 29.0085H39.4126C39.8327 29.0085 40.1764 28.6648 40.1764 28.2448V24.2883C40.1764 23.8683 39.8327 23.5246 39.4126 23.5246H35.4639Z" fill="white"/>
</mask>
<g mask="url(#mask1_1_5958)">
<g opacity="0.39">
<path d="M40.1754 28.9955H34.7041V21.9585L40.1754 23.5217V28.9955Z" fill="#4734F7"/>
</g>
</g>
<mask id="mask2_1_5958" style="mask-type:luminance" maskUnits="userSpaceOnUse" x="23" y="12" width="18" height="18">
<path d="M35.4639 23.5246C35.0438 23.5246 34.7001 23.1809 34.7001 22.7608V18.8146C34.7001 18.3945 35.0438 18.0508 35.4639 18.0508H39.4126C39.8327 18.0508 40.1764 17.7071 40.1764 17.287V13.3331C40.1764 12.913 39.8327 12.5693 39.4126 12.5693H24.3483C23.9282 12.5693 23.5845 12.913 23.5845 13.3331V28.2448C23.5845 28.6648 23.9282 29.0085 24.3483 29.0085H39.4126C39.8327 29.0085 40.1764 28.6648 40.1764 28.2448V24.2883C40.1764 23.8683 39.8327 23.5246 39.4126 23.5246H35.4639Z" fill="white"/>
</mask>
<g mask="url(#mask2_1_5958)">
<g opacity="0.2">
<path d="M40.1754 18.0441L34.7041 19.1185V12.5703H40.1754V18.0441Z" fill="#DEF7E5"/>
</g>
</g>
</svg>
