<svg width="29" height="29" viewBox="0 0 29 29" fill="none" xmlns="http://www.w3.org/2000/svg">
<rect width="29" height="29" rx="5" fill="#FB5959"/>
<path d="M15.4391 15.3347C14.9227 15.6861 14.0773 15.6861 13.5609 15.3347L6.93941 10.8292C6.42237 10.4772 6 9.6974 6 9.09499C6 8.49257 6.50644 8 7.12543 8H21.8746C22.4936 8 23 8.49257 23 9.09499C23 9.6974 22.5776 10.4772 22.0606 10.8292L15.4391 15.3347Z" fill="white"/>
<path d="M22.6809 11.7966L16.0594 16.3021C15.6278 16.5962 15.0736 16.7579 14.5003 16.7579C13.927 16.7579 13.3729 16.5962 12.9413 16.3021L6.31909 11.7966C6.20854 11.7216 6.10195 11.6356 6 11.5422V19.8402C6 20.4781 6.50644 21 7.12543 21H21.8746C22.4936 21 23 20.4781 23 19.8402V11.5422C22.898 11.6356 22.7915 11.7216 22.6809 11.7973V11.7966Z" fill="white"/>
</svg>
