<svg width="29" height="29" viewBox="0 0 29 29" fill="none" xmlns="http://www.w3.org/2000/svg">
<rect width="29" height="29" rx="5" fill="#00AEED"/>
<path fill-rule="evenodd" clip-rule="evenodd" d="M16.3121 11.1201C15.8658 11.4238 15.423 11.7322 14.9815 12.0447C14.1566 12.6292 13.3254 13.2421 12.4775 13.8067C11.7024 14.3224 10.9741 14.9077 10.2006 15.4257C9.36698 15.9845 8.33974 16.5742 7.31249 16.2633C5.85782 15.8224 4.72176 15.6383 3.65519 15.2084C2.58809 14.7791 2.9692 14.0367 3.76912 13.6466C4.56932 13.2559 13.4081 9.35037 13.4081 9.35037L18.9324 7.00749C19.4121 6.81561 19.891 6.6229 20.3696 6.42853C20.6923 6.29767 21.0093 6.15079 21.3484 6.07155C21.7324 5.98182 22.1908 5.94013 22.538 6.17039C23.0349 6.49949 23.0344 7.21676 22.9708 7.74961C22.8477 8.78798 22.6958 9.82331 22.5458 10.8581C22.3471 12.2261 22.1415 13.5933 21.9336 14.9599C21.7491 16.1731 21.5622 17.3856 21.3739 18.5979C21.2382 19.4729 21.1738 20.3748 20.9926 21.2401C20.9107 21.6313 20.7854 22.0253 20.5681 22.3613C19.6569 23.7685 17.9488 22.5129 17.0145 21.8091C16.2445 21.229 12.982 19.0659 12.174 18.4858C11.8855 18.2785 11.6598 17.9165 11.6631 17.5502C11.6674 17.0452 12.0172 16.6634 12.3571 16.3406C12.7743 15.9442 13.2055 15.5623 13.6198 15.162C14.2417 14.561 14.8633 13.9597 15.4855 13.3583C16.0193 12.8421 16.5534 12.326 17.0869 11.81C17.3819 11.5251 17.6617 11.2294 17.923 10.9108C18.0016 10.815 18.0563 10.7388 18.0652 10.6129C18.0714 10.5232 18.0536 10.4346 17.9876 10.3705C17.7422 10.1345 17.4379 10.3686 17.2178 10.5138C16.9146 10.714 16.6132 10.9161 16.3126 11.1206L16.3121 11.1201Z" fill="white"/>
</svg>
