<svg width="18" height="18" viewBox="0 0 18 18" fill="none" xmlns="http://www.w3.org/2000/svg">
<path d="M15 10.2975C15.2273 10.1656 15.416 9.97639 15.5471 9.74867C15.6783 9.52096 15.7473 9.26279 15.7473 9C15.7473 8.73722 15.6783 8.47905 15.5471 8.25133C15.416 8.02362 15.2273 7.83436 15 7.7025L4.5 1.7025C4.27209 1.57092 4.01356 1.50161 3.75039 1.50154C3.48721 1.50147 3.22865 1.57065 3.00067 1.70212C2.77268 1.83359 2.5833 2.02273 2.45154 2.25054C2.31978 2.47836 2.25027 2.73683 2.25 3L2.25 15C2.25027 15.2632 2.31978 15.5216 2.45154 15.7495C2.5833 15.9773 2.77268 16.1664 3.00067 16.2979C3.22865 16.4294 3.48721 16.4985 3.75039 16.4985C4.01356 16.4984 4.27209 16.4291 4.5 16.2975L15 10.2975Z" stroke="white" stroke-width="1.5" stroke-linecap="round" stroke-linejoin="round"/>
</svg>
