<svg width="20" height="20" viewBox="0 0 20 20" fill="none" xmlns="http://www.w3.org/2000/svg">
<rect width="20" height="20" rx="5" fill="#FFBE64"/>
<path d="M15.3333 6.66666H9.33333M11.3333 13.3333H5.33333M11.3333 13.3333C11.3333 14.4379 12.2288 15.3333 13.3333 15.3333C14.4379 15.3333 15.3333 14.4379 15.3333 13.3333C15.3333 12.2288 14.4379 11.3333 13.3333 11.3333C12.2288 11.3333 11.3333 12.2288 11.3333 13.3333ZM8.66666 6.66666C8.66666 7.77123 7.77123 8.66666 6.66666 8.66666C5.56209 8.66666 4.66666 7.77123 4.66666 6.66666C4.66666 5.56209 5.56209 4.66666 6.66666 4.66666C7.77123 4.66666 8.66666 5.56209 8.66666 6.66666Z" stroke="white" stroke-linecap="round" stroke-linejoin="round"/>
</svg>
