<?xml version="1.0" encoding="utf-8"?>
<!-- Generator: Adobe Illustrator 28.0.0, SVG Export Plug-In . SVG Version: 6.00 Build 0)  -->
<svg version="1.1" id="Layer_1" xmlns="http://www.w3.org/2000/svg" xmlns:xlink="http://www.w3.org/1999/xlink" x="0px" y="0px"
	 viewBox="0 0 18 18" style="enable-background:new 0 0 18 18;" xml:space="preserve">
<style type="text/css">
	.st0{fill:#5E87C7;}
</style>
<g>
	<g>
		<path class="st0" d="M14.5,16.8H7.6c-1.3,0-2.3-1-2.3-2.3V7.6c0-1.3,1-2.3,2.3-2.3h6.9c1.3,0,2.3,1,2.3,2.3v6.9
			C16.8,15.8,15.8,16.8,14.5,16.8z M7.6,7.1c-0.3,0-0.5,0.2-0.5,0.5v6.9c0,0.3,0.2,0.5,0.5,0.5h6.9c0.3,0,0.5-0.2,0.5-0.5V7.6
			c0-0.3-0.2-0.5-0.5-0.5H7.6z M3.5,12.7c-1.3,0-2.3-1-2.3-2.3V3.5c0-1.3,1-2.3,2.3-2.3h6.9c1.3,0,2.3,1,2.3,2.3
			c0,0.5-0.4,0.9-0.9,0.9S10.9,4,10.9,3.5c0-0.3-0.2-0.5-0.5-0.5H3.5C3.2,3,3,3.2,3,3.5v6.9c0,0.3,0.2,0.5,0.5,0.5
			c0.5,0,0.9,0.4,0.9,0.9S4,12.7,3.5,12.7z"/>
	</g>
</g>
</svg>
