<?xml version="1.0" encoding="utf-8"?>
<!-- Generator: Adobe Illustrator 28.0.0, SVG Export Plug-In . SVG Version: 6.00 Build 0)  -->
<svg version="1.1" id="Layer_1" xmlns="http://www.w3.org/2000/svg" xmlns:xlink="http://www.w3.org/1999/xlink" x="0px" y="0px"
	 viewBox="0 0 20 20" style="enable-background:new 0 0 20 20;" xml:space="preserve">
<style type="text/css">
	.st0{fill:none;stroke:#FFFFFF;stroke-linecap:round;stroke-linejoin:round;}
</style>
<path class="st0" d="M5.7,7.5L10,10 M10,10l4.4-2.5 M10,10v5 M14.5,8c0-0.2,0-0.3-0.1-0.5c-0.1-0.2-0.2-0.3-0.4-0.4l-3.5-2
	C10.3,5,10.2,5,10,5S9.7,5,9.5,5.1L6,7.1C5.8,7.2,5.7,7.3,5.6,7.5C5.5,7.7,5.5,7.8,5.5,8v4c0,0.2,0,0.3,0.1,0.5
	c0.1,0.2,0.2,0.3,0.4,0.4l3.5,2C9.7,15,9.8,15,10,15s0.3,0,0.5-0.1l3.5-2c0.2-0.1,0.3-0.2,0.4-0.4c0.1-0.2,0.1-0.3,0.1-0.5V8z"/>
</svg>
