<svg width="20" height="20" viewBox="0 0 20 20" fill="none" xmlns="http://www.w3.org/2000/svg">
<rect width="20" height="20" rx="5" fill="#438EFF"/>
<path d="M5.65 7.5L10 10M10 10L14.35 7.5M10 10V15M14.5 8C14.4998 7.82463 14.4535 7.6524 14.3658 7.50058C14.278 7.34875 14.1519 7.22268 14 7.135L10.5 5.135C10.348 5.04723 10.1755 5.00102 10 5.00102C9.82446 5.00102 9.65202 5.04723 9.5 5.135L6 7.135C5.84813 7.22268 5.72199 7.34875 5.63423 7.50058C5.54647 7.6524 5.50018 7.82463 5.5 8V12C5.50018 12.1754 5.54647 12.3476 5.63423 12.4994C5.72199 12.6512 5.84813 12.7773 6 12.865L9.5 14.865C9.65202 14.9528 9.82446 14.999 10 14.999C10.1755 14.999 10.348 14.9528 10.5 14.865L14 12.865C14.1519 12.7773 14.278 12.6512 14.3658 12.4994C14.4535 12.3476 14.4998 12.1754 14.5 12V8Z" stroke="white" stroke-linecap="round" stroke-linejoin="round"/>
</svg>
