<?xml version="1.0" encoding="utf-8"?>
<!-- Generator: Adobe Illustrator 28.0.0, SVG Export Plug-In . SVG Version: 6.00 Build 0)  -->
<svg version="1.1" id="Layer_1" xmlns="http://www.w3.org/2000/svg" xmlns:xlink="http://www.w3.org/1999/xlink" x="0px" y="0px"
	 viewBox="0 0 20 20" style="enable-background:new 0 0 20 20;" xml:space="preserve">
<style type="text/css">
	.st0{fill:none;stroke:#95969F;stroke-width:1.8;stroke-linecap:round;stroke-linejoin:round;}
</style>
<path class="st0" d="M8.6,15.6c0,0.1,0,0.3,0.1,0.4c0.1,0.1,0.2,0.2,0.3,0.3l1.4,0.7c0.1,0.1,0.2,0.1,0.3,0.1c0.1,0,0.2,0,0.3-0.1
	c0.1-0.1,0.2-0.1,0.2-0.2c0.1-0.1,0.1-0.2,0.1-0.3v-4.8c0-0.3,0.1-0.7,0.4-0.9l4.9-5.5c0.1-0.1,0.1-0.2,0.2-0.3c0-0.1,0-0.3,0-0.4
	c-0.1-0.1-0.1-0.2-0.3-0.3C16.4,4.1,16.3,4,16.1,4H3.9c-0.1,0-0.3,0-0.4,0.1C3.4,4.2,3.3,4.3,3.2,4.4C3.2,4.5,3.2,4.7,3.2,4.8
	c0,0.1,0.1,0.3,0.2,0.4l4.9,5.5c0.2,0.3,0.4,0.6,0.4,0.9V15.6z"/>
</svg>
