<svg width="20" height="20" viewBox="0 0 20 20" fill="none" xmlns="http://www.w3.org/2000/svg">
<rect width="20" height="20" rx="5" fill="#FF8864"/>
<path d="M9.0005 14.2499C9.00046 14.3428 9.0263 14.4339 9.07514 14.5129C9.12398 14.592 9.19388 14.6558 9.277 14.6974L10.277 15.1974C10.3532 15.2355 10.438 15.2535 10.5231 15.2496C10.6083 15.2457 10.691 15.2202 10.7635 15.1753C10.836 15.1305 10.8958 15.0679 10.9373 14.9934C10.9788 14.9189 11.0005 14.8351 11.0005 14.7499V11.2499C11.0006 11.0021 11.0927 10.7631 11.259 10.5794L14.8705 6.58488C14.9352 6.51316 14.9778 6.42422 14.993 6.32882C15.0083 6.23342 14.9956 6.13564 14.9565 6.04732C14.9173 5.95899 14.8534 5.88389 14.7725 5.8311C14.6916 5.77832 14.5971 5.75011 14.5005 5.74988H5.5005C5.4038 5.74991 5.30919 5.77799 5.22812 5.8307C5.14706 5.88341 5.08301 5.95849 5.04375 6.04686C5.00449 6.13523 4.99169 6.23308 5.00691 6.32857C5.02213 6.42406 5.06471 6.51309 5.1295 6.58488L8.742 10.5794C8.90827 10.7631 9.00039 11.0021 9.0005 11.2499V14.2499Z" stroke="white" stroke-linecap="round" stroke-linejoin="round"/>
</svg>
