<svg width="20" height="20" viewBox="0 0 20 20" fill="none" xmlns="http://www.w3.org/2000/svg">
<rect width="20" height="20" rx="5" fill="#4353FF"/>
<path d="M8.5 12.5H7.5C6.83696 12.5 6.20107 12.2366 5.73223 11.7678C5.26339 11.2989 5 10.663 5 10C5 9.33696 5.26339 8.70107 5.73223 8.23223C6.20107 7.76339 6.83696 7.5 7.5 7.5H8.5M11.5 7.5H12.5C13.163 7.5 13.7989 7.76339 14.2678 8.23223C14.7366 8.70107 15 9.33696 15 10C15 10.663 14.7366 11.2989 14.2678 11.7678C13.7989 12.2366 13.163 12.5 12.5 12.5H11.5M8 10H12" stroke="white" stroke-linecap="round" stroke-linejoin="round"/>
</svg>
