<?xml version="1.0" encoding="utf-8"?>
<!-- Generator: Adobe Illustrator 28.0.0, SVG Export Plug-In . SVG Version: 6.00 Build 0)  -->
<svg version="1.1" id="Layer_1" xmlns="http://www.w3.org/2000/svg" xmlns:xlink="http://www.w3.org/1999/xlink" x="0px" y="0px"
	 viewBox="0 0 20 20" style="enable-background:new 0 0 20 20;" xml:space="preserve">
<style type="text/css">
	.st0{fill:none;stroke:#95969F;stroke-width:1.8;stroke-linecap:round;stroke-linejoin:round;}
</style>
<path class="st0" d="M7.8,13.6H6.4c-1,0-1.9-0.4-2.5-1.1C3.2,11.9,2.8,11,2.8,10c0-1,0.4-1.9,1.1-2.5c0.7-0.7,1.6-1.1,2.5-1.1h1.4
	 M12.2,6.4h1.4c1,0,1.9,0.4,2.5,1.1c0.7,0.7,1.1,1.6,1.1,2.5c0,1-0.4,1.9-1.1,2.5c-0.7,0.7-1.6,1.1-2.5,1.1h-1.4 M7.1,10h5.7"/>
</svg>
