<svg width="14" height="12" viewBox="0 0 14 12" fill="none" xmlns="http://www.w3.org/2000/svg">
<path d="M3.39958 7.47059L4.29942 5.76472C4.39725 5.57422 4.54605 5.41338 4.72991 5.2994C4.91377 5.18543 5.12578 5.12261 5.34324 5.11767H11.7981M11.7981 5.11767C11.9814 5.11735 12.1623 5.15822 12.327 5.23713C12.4917 5.31604 12.6357 5.43089 12.7481 5.57288C12.8605 5.71487 12.9381 5.88021 12.9752 6.05622C13.0123 6.23223 13.0077 6.41423 12.9619 6.58825L12.0381 10.1176C11.9712 10.3715 11.8198 10.5962 11.6079 10.756C11.396 10.9159 11.1356 11.0017 10.8683 11H2.19979C1.88159 11 1.57641 10.876 1.35141 10.6554C1.12641 10.4348 1 10.1355 1 9.82351V2.17652C1 1.8645 1.12641 1.56526 1.35141 1.34463C1.57641 1.124 1.88159 1.00006 2.19979 1.00006H4.53938C4.74004 0.998128 4.93798 1.04558 5.1151 1.13807C5.29221 1.23056 5.44284 1.36513 5.5532 1.52946L6.03912 2.23534C6.14836 2.398 6.29709 2.53153 6.47194 2.62393C6.6468 2.71633 6.84231 2.76472 7.04094 2.76475H10.5983C10.9165 2.76475 11.2217 2.8887 11.4467 3.10933C11.6717 3.32995 11.7981 3.62919 11.7981 3.94121V5.11767Z" stroke="#CBCBCB" stroke-width="1.5" stroke-linecap="round" stroke-linejoin="round"/>
</svg>
