<?xml version="1.0" encoding="utf-8"?>
<!-- Generator: Adobe Illustrator 28.0.0, SVG Export Plug-In . SVG Version: 6.00 Build 0)  -->
<svg version="1.1" id="Layer_1" xmlns="http://www.w3.org/2000/svg" xmlns:xlink="http://www.w3.org/1999/xlink" x="0px" y="0px"
	 viewBox="0 0 18 18" style="enable-background:new 0 0 18 18;" xml:space="preserve">
<style type="text/css">
	.st0{fill:#2F2F2F;}
</style>
<g>
	<path class="st0" d="M12,16.5c-0.2,0-0.4-0.1-0.5-0.2c-0.3-0.3-0.3-0.8,0-1.1l1.7-1.7H3c-0.4,0-0.8-0.3-0.8-0.8S2.6,12,3,12h10.2
		l-1.7-1.7c-0.3-0.3-0.3-0.8,0-1.1s0.8-0.3,1.1,0l3,3c0.1,0.1,0.1,0.2,0.2,0.2c0,0,0,0,0,0s0,0,0,0c0,0.1,0.1,0.2,0.1,0.3
		s0,0.2-0.1,0.3c0,0.1-0.1,0.2-0.2,0.2l0,0c0,0,0,0,0,0l0,0c0,0,0,0,0,0c0,0,0,0,0,0c0,0,0,0,0,0l-3,3C12.4,16.5,12.2,16.5,12,16.5z
		 M6,9C5.8,9,5.6,8.9,5.5,8.7l-3-3C2.4,5.7,2.3,5.6,2.3,5.5c0,0,0,0,0,0c0,0,0,0,0,0c0-0.1-0.1-0.2-0.1-0.3s0-0.2,0.1-0.3
		c0-0.1,0.1-0.2,0.2-0.2c0,0,0,0,0,0c0,0,0,0,0,0l0,0c0,0,0,0,0,0c0,0,0,0,0,0c0,0,0,0,0,0l3-3c0.3-0.3,0.8-0.3,1.1,0s0.3,0.8,0,1.1
		L4.8,4.5H15c0.4,0,0.8,0.3,0.8,0.8S15.4,6,15,6H4.8l1.7,1.7c0.3,0.3,0.3,0.8,0,1.1C6.4,8.9,6.2,9,6,9z"/>
</g>
</svg>
