<svg width="16" height="14" viewBox="0 0 16 14" fill="none" xmlns="http://www.w3.org/2000/svg">
<path d="M5.33594 5.66667L8.0026 8.33333L10.6693 5.66667M2.66927 1H13.3359C13.6896 1 14.0287 1.14048 14.2787 1.39052C14.5288 1.64057 14.6693 1.97971 14.6693 2.33333V6.33333C14.6693 8.10144 13.9669 9.79714 12.7166 11.0474C11.4664 12.2976 9.77071 13 8.0026 13C7.12712 13 6.26022 12.8276 5.45138 12.4925C4.64254 12.1575 3.90762 11.6664 3.28856 11.0474C2.03832 9.79714 1.33594 8.10144 1.33594 6.33333V2.33333C1.33594 1.97971 1.47641 1.64057 1.72646 1.39052C1.97651 1.14048 2.31565 1 2.66927 1Z" stroke="#CBCBCB" stroke-width="1.5" stroke-linecap="round" stroke-linejoin="round"/>
</svg>
