<?xml version="1.0" encoding="utf-8"?>
<!-- Generator: Adobe Illustrator 28.0.0, SVG Export Plug-In . SVG Version: 6.00 Build 0)  -->
<svg version="1.1" id="Layer_1" xmlns="http://www.w3.org/2000/svg" xmlns:xlink="http://www.w3.org/1999/xlink" x="0px" y="0px"
	 viewBox="0 0 14 14" style="enable-background:new 0 0 14 14;" xml:space="preserve">
<style type="text/css">
	.st0{fill:#994040;}
</style>
<path class="st0" d="M10.1,13.8H4c-1,0-1.9-0.9-1.9-1.8V4H1.5C1.1,4,0.9,3.8,0.9,3.4s0.3-0.6,0.6-0.6H4V2.1c0-1,0.9-1.9,1.8-1.9h2.4
	c1,0,1.9,0.9,1.9,1.9v0.6h2.3c0.4,0,0.7,0.3,0.7,0.6S12.8,4,12.4,4H12v7.9C12,12.9,11.1,13.8,10.1,13.8z M3.4,4v7.9
	c0,0.2,0.3,0.5,0.6,0.5h6.1c0.2,0,0.5-0.3,0.5-0.5V4H3.4z M5.2,2.8h3.5V2.1c0-0.2-0.3-0.6-0.5-0.6H5.8c-0.2,0-0.5,0.3-0.5,0.6V2.8z
	 M8.2,10.7c-0.4,0-0.6-0.3-0.6-0.7V6.4c0-0.4,0.3-0.6,0.6-0.6c0.4,0,0.7,0.3,0.7,0.6V10C8.9,10.4,8.6,10.7,8.2,10.7z M5.8,10.7
	c-0.4,0-0.6-0.3-0.6-0.7V6.4c0-0.4,0.3-0.6,0.6-0.6S6.4,6,6.4,6.4V10C6.4,10.4,6.2,10.7,5.8,10.7z"/>
</svg>
