<?xml version="1.0" encoding="utf-8"?>
<!-- Generator: Adobe Illustrator 28.0.0, SVG Export Plug-In . SVG Version: 6.00 Build 0)  -->
<svg version="1.1" id="Layer_1" xmlns="http://www.w3.org/2000/svg" xmlns:xlink="http://www.w3.org/1999/xlink" x="0px" y="0px"
	 viewBox="0 0 20 20" style="enable-background:new 0 0 20 20;" xml:space="preserve">
<style type="text/css">
	.st0{fill:#FFC038;}
	.st1{fill:#322E49;}
	.st2{fill:#FFB338;}
</style>
<path class="st0" d="M10,3.2l2.1,2.4l5.2,9.9l-0.4,0.7L15.8,17H3.4l-0.7-1.3C2.6,15.6,8.8,3.2,10,3.2z"/>
<path class="st1" d="M10,12c0.5,0,0.8-0.4,0.8-0.8V7.5c0-0.5-0.4-0.8-0.8-0.8c-0.5,0-0.8,0.4-0.8,0.8l0,0v3.6C9.2,11.7,9.5,12,10,12
	L10,12z"/>
<circle class="st1" cx="10" cy="13.9" r="0.9"/>
<path class="st2" d="M17.5,14.6l-6-10.9c-0.4-1-1.5-1.3-2.4-0.8C8.8,3.1,8.5,3.3,8.4,3.7l-6,10.9c-0.5,0.9-0.1,2,0.7,2.5
	c0.2,0.1,0.6,0.2,0.9,0.2h11.9c1.1,0,1.9-0.8,1.9-1.9C17.8,15.2,17.7,14.9,17.5,14.6L17.5,14.6z M16.5,15.8
	c-0.1,0.2-0.4,0.4-0.5,0.4H4c-0.4,0-0.6-0.2-0.6-0.6c0-0.1,0-0.2,0.1-0.4l6-10.9c0.1-0.4,0.6-0.4,0.8-0.2c0.1,0,0.2,0.1,0.2,0.2
	l6,10.9C16.6,15.4,16.6,15.6,16.5,15.8L16.5,15.8z"/>
</svg>
