<?xml version="1.0" encoding="utf-8"?>
<!-- Generator: Adobe Illustrator 28.0.0, SVG Export Plug-In . SVG Version: 6.00 Build 0)  -->
<svg version="1.1" id="Layer_1" xmlns="http://www.w3.org/2000/svg" xmlns:xlink="http://www.w3.org/1999/xlink" x="0px" y="0px"
	 viewBox="0 0 20 20" style="enable-background:new 0 0 20 20;" xml:space="preserve">
<style type="text/css">
	.st0{fill:none;stroke:#C79F5E;stroke-width:1.3;stroke-linecap:round;stroke-linejoin:round;}
</style>
<path class="st0" d="M10,8.3v2.6 M10,13.5L10,13.5 M8.9,4.9l-5.6,9.3c-0.1,0.2-0.2,0.4-0.2,0.7c0,0.2,0.1,0.5,0.2,0.7
	c0.1,0.2,0.3,0.4,0.5,0.5s0.4,0.2,0.7,0.2h11.1c0.2,0,0.5-0.1,0.7-0.2s0.4-0.3,0.5-0.5c0.1-0.2,0.2-0.4,0.2-0.7
	c0-0.2-0.1-0.5-0.2-0.7l-5.6-9.3c-0.1-0.2-0.3-0.4-0.5-0.5c-0.2-0.1-0.4-0.2-0.6-0.2c-0.2,0-0.4,0.1-0.6,0.2C9.1,4.5,9,4.7,8.9,4.9z
	"/>
</svg>
