<?xml version="1.0" encoding="utf-8"?>
<!-- Generator: Adobe Illustrator 28.0.0, SVG Export Plug-In . SVG Version: 6.00 Build 0)  -->
<svg version="1.1" id="Layer_1" xmlns="http://www.w3.org/2000/svg" xmlns:xlink="http://www.w3.org/1999/xlink" x="0px" y="0px"
	 viewBox="0 0 15.9 14.4" style="enable-background:new 0 0 15.9 14.4;" xml:space="preserve">
<style type="text/css">
	.st0{fill:none;stroke:#C79F5E;stroke-width:1.8;stroke-linecap:round;stroke-linejoin:round;}
</style>
<path class="st0" d="M7.9,5.3v2.6 M7.9,10.5L7.9,10.5 M6.8,1.9l-5.6,9.4C1.1,11.4,1,11.6,1,11.9c0,0.2,0.1,0.5,0.2,0.7
	c0.1,0.2,0.3,0.4,0.5,0.5c0.2,0.1,0.4,0.2,0.7,0.2h11.2c0.2,0,0.5-0.1,0.7-0.2c0.2-0.1,0.4-0.3,0.5-0.5c0.1-0.2,0.2-0.4,0.2-0.7
	c0-0.2-0.1-0.5-0.2-0.7L9.1,1.9C9,1.7,8.7,1.2,8,1.2S6.9,1.7,6.8,1.9z"/>
</svg>
